<svg width="10px" height="10px" viewBox="0 0 10 10" version="1.1"
  xmlns:xlink="http://www.w3.org/1999/xlink"
  xmlns="http://www.w3.org/2000/svg">
  <g id="Group" transform="translate(0.5 0.5)">
    <path d="M0.999 2L6.001 2Q6.09939 2 6.19589 2.0192Q6.2924 2.03839 6.3833 2.07604Q6.4742 2.1137 6.55601 2.16836Q6.63782 2.22303 6.7074 2.2926Q6.77697 2.36217 6.83164 2.44398Q6.8863 2.5258 6.92395 2.6167Q6.96161 2.7076 6.9808 2.8041Q7 2.90061 7 2.999L7 8.001Q7 8.09939 6.9808 8.19589Q6.96161 8.2924 6.92395 8.3833Q6.8863 8.4742 6.83164 8.55601Q6.77697 8.63783 6.7074 8.7074Q6.63782 8.77697 6.55601 8.83164Q6.4742 8.8863 6.3833 8.92395Q6.2924 8.96161 6.19589 8.9808Q6.09939 9 6.001 9L0.999 9Q0.900607 9 0.804105 8.9808Q0.707602 8.96161 0.616699 8.92395Q0.525796 8.8863 0.443985 8.83164Q0.362175 8.77697 0.2926 8.7074Q0.223026 8.63783 0.168362 8.55601Q0.113698 8.4742 0.0760443 8.3833Q0.038391 8.2924 0.0191955 8.19589Q0 8.09939 0 8.001L0 2.999Q0 2.90061 0.0191955 2.8041Q0.038391 2.7076 0.0760443 2.6167Q0.113698 2.5258 0.168362 2.44399Q0.223026 2.36217 0.2926 2.2926Q0.362175 2.22303 0.443985 2.16836Q0.525796 2.1137 0.616699 2.07604Q0.707602 2.03839 0.804105 2.0192Q0.900607 2 0.999 2L0.999 2Z" id="Vector" fill="none" fill-rule="evenodd" stroke="#fff" stroke-width="1.01" />
    <path d="M2 0L7.00112 0Q7.09933 0 7.19706 0.00962573Q7.29479 0.0192515 7.39111 0.0384102Q7.48742 0.057569 7.5814 0.0860763Q7.67538 0.114584 7.7661 0.152165Q7.85683 0.189746 7.94344 0.236039Q8.03005 0.282333 8.11171 0.336892Q8.19336 0.391452 8.26927 0.453752Q8.34519 0.516052 8.41463 0.585494Q8.48407 0.654935 8.54637 0.730848Q8.60867 0.806761 8.66323 0.888415Q8.71779 0.970069 8.76408 1.05668Q8.81038 1.14329 8.84796 1.23402Q8.88554 1.32474 8.91405 1.41872Q8.94255 1.5127 8.96171 1.60901Q8.98087 1.70533 8.9905 1.80306Q9.00012 1.9008 9.00012 1.999L9.00012 7" id="Vector-2" fill="none" fill-rule="evenodd" stroke="#fff" stroke-width="1.01" />
  </g>
</svg>