<svg width="10px" height="10px" viewBox="0 0 10 10" version="1.1"
  xmlns:xlink="http://www.w3.org/1999/xlink"
  xmlns="http://www.w3.org/2000/svg">
  <g id="Group" transform="translate(0.5 0.5)">
    <path d="M0.999 0L8.001 0Q8.09939 0 8.1959 0.0191955Q8.2924 0.038391 8.3833 0.0760443Q8.4742 0.113698 8.55602 0.168362Q8.63783 0.223026 8.7074 0.2926Q8.77697 0.362175 8.83164 0.443985Q8.8863 0.525796 8.92395 0.616699Q8.96161 0.707602 8.9808 0.804105Q9 0.900607 9 0.999L9 8.001Q9 8.09939 8.9808 8.1959Q8.96161 8.2924 8.92395 8.3833Q8.8863 8.4742 8.83164 8.55602Q8.77697 8.63783 8.7074 8.7074Q8.63783 8.77697 8.55601 8.83164Q8.4742 8.8863 8.3833 8.92395Q8.2924 8.96161 8.1959 8.9808Q8.09939 9 8.001 9L0.999 9Q0.900607 9 0.804105 8.9808Q0.707602 8.96161 0.616699 8.92395Q0.525796 8.8863 0.443985 8.83164Q0.362175 8.77697 0.2926 8.7074Q0.223026 8.63783 0.168362 8.55601Q0.113698 8.4742 0.0760443 8.3833Q0.038391 8.2924 0.0191955 8.1959Q0 8.09939 0 8.001L0 0.999Q0 0.900607 0.0191955 0.804105Q0.038391 0.707602 0.0760443 0.616699Q0.113698 0.525796 0.168362 0.443985Q0.223026 0.362175 0.2926 0.2926Q0.362175 0.223026 0.443985 0.168362Q0.525796 0.113698 0.616699 0.0760443Q0.707602 0.038391 0.804105 0.0191955Q0.900607 0 0.999 0Z" id="Vector-2" fill="none" fill-rule="evenodd" stroke="#808080" stroke-width="1.01" />
  </g>
</svg>